PathFileType	4	(X/Y/Z)	11_2_77_p0_0-231_filt_butterworth.trc
DataRate	CameraRate	NumFrames	NumMarkers	Units	OrigDataRate	OrigDataStartFrame	OrigNumFrames
60.0	60.0	5	27	m	60.0	28	231
Frame#	Time	RHip			RKnee			RAnkle			RBigToe			RSmallToe			RHeel			LHip			LKnee			LAnkle			LBigToe			LSmallToe			LHeel			Neck			Head			Nose			RShoulder			RElbow			RWrist			RThumb			RIndex			RPinky			LShoulder			LElbow			LWrist			LThumb			LIndex			LPinky			
		X1	Y1	Z1	X2	Y2	Z2	X3	Y3	Z3	X4	Y4	Z4	X5	Y5	Z5	X6	Y6	Z6	X7	Y7	Z7	X8	Y8	Z8	X9	Y9	Z9	X10	Y10	Z10	X11	Y11	Z11	X12	Y12	Z12	X13	Y13	Z13	X14	Y14	Z14	X15	Y15	Z15	X16	Y16	Z16	X17	Y17	Z17	X18	Y18	Z18	X19	Y19	Z19	X20	Y20	Z20	X21	Y21	Z21	X22	Y22	Z22	X23	Y23	Z23	X24	Y24	Z24	X25	Y25	Z25	X26	Y26	Z26	X27	Y27	Z27	
28	0.4666666666666667	0.3584415557971739	0.5651033656856226	0.6217776578670616	0.34147124944607243	0.5723864366361091	1.0397798843385808	0.35140375827019643	0.6768003853537329	1.446397868835261	0.3533432381780177	0.5146196846705193	1.446785313428688	0.40346944403242646	0.5373182829883743	1.4440849901277277	0.3352856800866433	0.7951724317119684	1.5410618302461414	0.15234561575279876	0.5492995773123298	0.6276320452537015	0.1589602532767047	0.6396969989940295	1.0779060120977928	0.18539716940706882	0.6899047241692182	1.4489402601763064	0.19814601774692717	0.4977892437913393	1.4352065190475105	0.15066592183632996	0.5405196601132902	1.4337840110651623	0.19617832676781435	0.7381664425083777	1.5127846839014671	0.26831773107222734	0.5107201125337795	0.07279764183407289	0.2756876674774353	0.4716879482924735	-0.16433026884499005	0.2838446953809378	0.4310778225282111	-0.024372956788212937	0.40197044237471	0.5286728340962948	0.14949234627774222	0.45954071736344	0.6256618485983979	0.3757014873268939	0.3918129812838237	0.3778618476770484	0.4063904965290153	0.3281644939611032	0.28138063478476655	0.36639342050120416	0.34450616088868796	0.22460765968939508	0.39677297537988254	0.3301005236667082	0.2837776061888635	0.43112029769936067	0.10769679813500857	0.532489529849021	0.13571408017366102	0.033076630504139365	0.5597253235892361	0.34524864572838976	0.15762906566635965	0.36307820170497995	0.3996285680112508	0.2191179162734644	0.2740203934919561	0.3799532295161375	0.22153750250872006	0.20859530915266677	0.41013457138668796	0.21668172805480923	0.284945361862324	0.46073310066518147
29	0.4833333333333333	0.35873932214356086	0.5648867474112952	0.6200933478375387	0.341493440938148	0.5724480537086438	1.0397266223637525	0.3511887258707763	0.6756856768283411	1.4444209313077836	0.35326718951912955	0.5142379084596237	1.4465816596974599	0.4037806054106163	0.5385010931653893	1.4441413516444248	0.3352046012082968	0.7954086673481738	1.5409946077417644	0.1523012273783238	0.5490951167608252	0.6279322787284616	0.15848600906173307	0.6386892614975926	1.0772510546281224	0.1851152420492993	0.6900984950998766	1.4491743794887282	0.19816449815128737	0.49772122174652406	1.4351240955913867	0.15071154731264436	0.5404809163286954	1.433665737162384	0.19613333329588106	0.7378108177022937	1.511884120593704	0.2670658867975365	0.5118115288695245	0.07294013809632596	0.2753690952234771	0.4716434734625289	-0.1652011871100701	0.2823480608467509	0.43217093722861355	-0.02382242557543872	0.4006140114653456	0.5266743899524166	0.14893620861190587	0.4594152142248676	0.6252772576679584	0.37378144971912386	0.3935509164885565	0.37735343594403326	0.40397088010910476	0.33030179465744475	0.2732215614848007	0.3630950723608793	0.34635091967808845	0.22277891507767328	0.3959087124252615	0.33021839243676654	0.2795571940021795	0.4284481264295702	0.10704829596733481	0.5285249079601597	0.1358676516405824	0.03302970790498139	0.5594048247548892	0.34560553640781894	0.16012471109216317	0.3582169385942407	0.3982328041948965	0.22534779566041707	0.2734511422301374	0.37640258431712376	0.23275636430271623	0.20485577421956588	0.40668435232279115	0.223040260830709	0.28992729495367225	0.4613201841257511
30	0.5	0.3586322562679227	0.5649456595748653	0.6198387793432233	0.34151941707963446	0.5724992835735184	1.039699534996038	0.3510102874763623	0.6749380373099716	1.442972071678454	0.35323407764638803	0.5140285522054849	1.4464976320762326	0.4045000400359551	0.5417514693107001	1.44548026713255	0.3351311328211776	0.7956495533841129	1.5409978661320987	0.15292497657995532	0.5475073771045416	0.6285618371531831	0.1585542959376406	0.633108397425124	1.075208058878507	0.18487792587682106	0.6902097651161659	1.449317846895396	0.19820252555104503	0.4976094239630519	1.4350579172915892	0.15074274674814134	0.5403939591205449	1.4335516865561495	0.19582926232528786	0.7374761086263619	1.5125082460964632	0.265064863444087	0.5146670204185184	0.073250015944354	0.27439059798530424	0.47137562729340854	-0.1654691388469836	0.2797018204706003	0.43514292802642185	-0.02355424643838498	0.4002086199694475	0.5263225349974942	0.14870925806707377	0.45938693159566735	0.6250742909116939	0.3739559523963591	0.39583043771073967	0.37637757799603944	0.40650783065738927	0.33541049240596077	0.26444142834069184	0.36413782977481635	0.3495577439573377	0.2230414238905845	0.39869057417027354	0.33232551302885777	0.27444202558897995	0.4315556345963073	0.10660345659007552	0.5255043969526807	0.136169694009258	0.033041209149497264	0.5589411279229249	0.3463789563895197	0.16173215443930541	0.3558522337399043	0.39968422629624595	0.22997208645603467	0.27547761227610124	0.37639842518532307	0.23867870260900753	0.2037447404259382	0.407444134547275	0.2282173839982654	0.2922390073697368	0.4627271484020243
31	0.5166666666666667	0.3584860744372927	0.5652081854028224	0.6202341962854935	0.3415375839997133	0.5725396462819509	1.0396896192183955	0.3509183486439073	0.6747465542773794	1.4424656672318124	0.3532672823813058	0.514169249767436	1.4465986241048259	0.4054801752614759	0.5463091983691633	1.4478350706546383	0.3350709395964329	0.7958043085980189	1.5410245957477093	0.15454889151746093	0.5439497757702413	0.6286657519919986	0.15950418281906512	0.6242117124594945	1.0726937639112668	0.18476701421107608	0.6902427431601598	1.4493537612752698	0.1982567189880588	0.49752039060014536	1.4350489841319678	0.1507312292887889	0.5403214238350409	1.4335167286611572	0.19488701807272127	0.7379392244004829	1.5157233269394315	0.2627717517689458	0.518452819047769	0.07366479113820668	0.2730435077226021	0.47097964744148124	-0.16530665306594533	0.2768012764722794	0.43876806958811887	-0.0234784215234823	0.39981752141248555	0.5265941030450421	0.1486961887151572	0.459328459274486	0.6251859763545007	0.3753221551930577	0.39880513498871145	0.37548992392653036	0.4129827973649352	0.3420498397477933	0.25681355346730766	0.3705270217868232	0.3534684454103184	0.22458349419604756	0.4055894199496271	0.3366881219574416	0.27132080749243376	0.439925462726635	0.10632317627794874	0.5231612539834646	0.13692814990718455	0.03314469874601346	0.5585020723799754	0.3476307145718952	0.16194774287038344	0.35576020889751103	0.402086678035381	0.23120803565709516	0.2810345942262313	0.3785036960531318	0.2380875419165156	0.20703559826845394	0.4118623499869404	0.22979382321256192	0.2927237056105681	0.46421798686433513
32	0.5333333333333333	0.35844159665061226	0.5651767424988309	0.6207493574457332	0.34154811957210357	0.5725205173968643	1.039746882548465	0.35089648078575314	0.6748274285060504	1.4425226672905773	0.35326346372197015	0.5141879520155174	1.4466182868199253	0.4062849142433271	0.5496130426802253	1.4494437086812924	0.3350228392989884	0.7958966343060333	1.541046887145273	0.15669343564485697	0.5394267831919729	0.6283574696032611	0.1611788228249313	0.6154535136449952	1.0711031740985095	0.18473558056936276	0.6902481384132122	1.4493642487955292	0.1983204772149933	0.49749587752545366	1.435103947602457	0.15072467641294227	0.5401767573717726	1.4335149729877614	0.19302882436584257	0.7404064115258511	1.5200224413726255	0.26074149333634994	0.5213559634679472	0.07400464237622363	0.2720225317454772	0.4706750518368088	-0.1647378015116919	0.27457188678552785	0.4404297565740384	-0.023534590603998193	0.3987640913724939	0.5268995658180051	0.14874581012917168	0.4592681068589296	0.6254017694932683	0.3768784398975219	0.4029716128412843	0.3746224210871689	0.42064553070883526	0.3486244502790221	0.2502636006928574	0.38374619145863165	0.3566926587181546	0.2262540475224667	0.4168835661191139	0.34441482193297207	0.2727970943277065	0.4525605024841797	0.10593626676601949	0.5199867980860873	0.1378912761946068	0.03333057628337147	0.5583267248217335	0.34936543829299566	0.1614267300648134	0.3565679273228658	0.4047587714766482	0.23055783035130764	0.2860547757593518	0.38282332177496803	0.2340686239322963	0.21245279720718846	0.4192529758832838	0.22889909059077918	0.29275400184715733	0.46592617961922633
